<svg width="81" height="80" viewBox="0 0 81 80" fill="none" xmlns="http://www.w3.org/2000/svg">
<g clip-path="url(#clip0_18948_10860)">
<path d="M40.5 80C62.5914 80 80.5 62.0914 80.5 40C80.5 17.9086 62.5914 0 40.5 0C18.4086 0 0.5 17.9086 0.5 40C0.5 62.0914 18.4086 80 40.5 80Z" fill="#F2F5FA"/>
<path d="M32.2742 21.002H27.0539C26.6933 21.002 26.3716 21.2274 26.2479 21.566L12.5263 59.1824C12.4243 59.4623 12.6315 59.7584 12.9293 59.7584H18.1496C18.5102 59.7584 18.8319 59.533 18.9556 59.1947L32.6772 21.5779C32.7792 21.2981 32.572 21.002 32.2742 21.002ZM38.6237 36.7635C38.4866 36.3876 37.9551 36.3876 37.8177 36.7635L35.1114 44.1838C35.0421 44.3736 35.0421 44.5819 35.1114 44.7717L40.3724 59.1944C40.4958 59.533 40.8179 59.7581 41.1784 59.7581H46.3987C46.6966 59.7581 46.9038 59.462 46.8017 59.1821L38.6237 36.7635ZM51.9317 44.0264C52.0688 44.4024 52.6003 44.4024 52.7374 44.0264L60.926 21.5779C61.028 21.2981 60.8208 21.002 60.523 21.002H55.3027C54.9421 21.002 54.6204 21.2271 54.4967 21.566L49.2251 36.018C49.1558 36.2078 49.1558 36.4158 49.2251 36.6056L51.9317 44.0264ZM41.6387 21.562C41.5164 21.2257 41.1966 21.002 40.839 21.002H35.601C35.2407 21.002 34.919 21.2271 34.7953 21.5657L21.074 59.1824C20.972 59.4623 21.1792 59.7584 21.477 59.7584H26.6976C27.0581 59.7584 27.3799 59.5332 27.5036 59.1947L38.0092 30.3932C38.0782 30.2043 38.3452 30.2043 38.4139 30.3932L48.9198 59.1947C49.0432 59.5332 49.3653 59.7584 49.7258 59.7584H54.9464C55.2442 59.7584 55.4514 59.4623 55.3494 59.1827L41.6387 21.562ZM69.0707 21.002H63.8498C63.4895 21.002 63.1675 21.2271 63.0441 21.5657L53.4986 47.7343C53.4294 47.9241 53.4294 48.1321 53.4986 48.3219L56.2055 55.7427C56.3426 56.1187 56.8742 56.1187 57.0112 55.7427L66.4604 29.8383L69.4737 21.5777C69.5757 21.2981 69.3685 21.002 69.0707 21.002Z" fill="#EF8220"/>
</g>
<defs>
<clipPath id="clip0_18948_10860">
<rect width="80" height="80" fill="white" transform="translate(0.5)"/>
</clipPath>
</defs>
</svg>
