<svg width="50" height="50" viewBox="0 0 50 50" fill="none" xmlns="http://www.w3.org/2000/svg">
  <circle cx="25" cy="25" r="25" fill="#E3453D"/>
  <path fill-rule="evenodd" clip-rule="evenodd" d="M27.3847 11.7827L29.8109 16.1006C30.4016 17.1855 30.4016 18.9509 29.8109 19.9932L21.6674 34.2021C21.0556 35.2869 19.5366 36.1589 18.313 36.1589H17.8699H15.296H11.5408C10.064 36.1589 9.45214 35.1167 10.1905 33.8192L23.6927 9.93212C24.4311 8.63461 25.6126 8.63461 26.3509 9.93212L27.3847 11.7827ZM32.5522 25.6934C33.2906 24.3958 34.472 24.3958 35.2104 25.6934L39.8096 33.84C40.548 35.1163 39.9362 36.1798 38.4594 36.1798H29.2189C27.7631 36.1798 27.1513 35.1163 27.8897 33.84L32.5522 25.6934Z" fill="white"/>
</svg>
