<svg width="50" height="50" viewBox="0 0 50 50" fill="none" xmlns="http://www.w3.org/2000/svg">
  <path d="M25 50C38.8071 50 50 38.8071 50 25C50 11.1929 38.8071 0 25 0C11.1929 0 0 11.1929 0 25C0 38.8071 11.1929 50 25 50Z" fill="#F3BA2F" />
  <path fill-rule="evenodd" clip-rule="evenodd" d="M18.5448 22.6622L25.1867 16.1887L31.8322 22.6656L35.6969 18.8987L25.1867 8.6543L14.6801 18.8953L18.5448 22.6622ZM16.0855 24.8329L12.37 21.1481L8.6543 24.833L12.3698 28.5178L16.0855 24.8329ZM25.1886 33.8123L18.5491 27.3386L14.6801 31.1006L14.6855 31.1059L25.1886 41.3468L35.695 31.1025L35.6969 31.1004L31.8314 27.3355L25.1886 33.8123ZM37.8194 28.5196L41.5351 24.8346L37.8196 21.1498L34.1039 24.8348L37.8194 28.5196ZM28.6899 25.0002H28.6884L28.6916 25.0019L28.6899 25.0038L25.1888 28.5049L21.6908 25.007L21.686 25.0019L21.6908 24.9971L22.3041 24.3838L22.6012 24.0865H22.6014L25.1888 21.4992L28.6899 25.0002Z" fill="white" />
</svg>
