<svg width="81" height="80" viewBox="0 0 81 80" fill="none" xmlns="http://www.w3.org/2000/svg">
<g clip-path="url(#clip0_18948_10896)">
<path d="M40.5 80C62.5914 80 80.5 62.0914 80.5 40C80.5 17.9086 62.5914 0 40.5 0C18.4086 0 0.5 17.9086 0.5 40C0.5 62.0914 18.4086 80 40.5 80Z" fill="#1F2226"/>
<g clip-path="url(#clip1_18948_10896)">
<path d="M34.8847 61.0528C43.4124 61.0528 50.3233 54.1419 50.3233 45.6142C50.3233 37.0864 43.4124 30.1756 34.8847 30.1756C26.3569 30.1756 19.4461 37.0864 19.4461 45.6142C19.4461 54.1419 26.3569 61.0528 34.8847 61.0528ZM34.8847 66.6668C23.258 66.6668 13.832 57.2408 13.832 45.6142C13.832 33.9875 23.258 24.5615 34.8847 24.5615C46.5113 24.5615 55.9373 33.9875 55.9373 45.6142C55.9373 57.2408 46.5113 66.6668 34.8847 66.6668Z" fill="#FED64A"/>
<path d="M46.1112 49.8242C54.6389 49.8242 61.5498 42.9134 61.5498 34.3856C61.5498 25.8579 54.6389 18.947 46.1112 18.947C37.5835 18.947 30.6726 25.8579 30.6726 34.3856C30.6726 42.9134 37.5835 49.8242 46.1112 49.8242ZM46.1112 55.4383C34.4846 55.4383 25.0586 46.0123 25.0586 34.3856C25.0586 22.759 34.4846 13.333 46.1112 13.333C57.7379 13.333 67.1639 22.759 67.1639 34.3856C67.1639 46.0123 57.7379 55.4383 46.1112 55.4383Z" fill="#2DE183"/>
<path d="M46.8074 55.4387C48.267 53.6703 49.3112 51.5987 49.867 49.3699C52.0902 48.8142 54.1618 47.7699 55.9358 46.3103C55.8572 48.8871 55.3014 51.4247 54.2965 53.805C51.9217 54.8043 49.3842 55.3601 46.8074 55.4387ZM31.1274 30.6303C28.9042 31.1861 26.8326 32.2303 25.0586 33.6899C25.1372 31.1131 25.693 28.5756 26.6979 26.2008C29.0726 25.2015 31.6158 24.6457 34.187 24.5615C32.7274 26.3299 31.6832 28.4015 31.1274 30.6303Z" fill="#ECFF8F"/>
</g>
</g>
<defs>
<clipPath id="clip0_18948_10896">
<rect width="80" height="80" fill="white" transform="translate(0.5)"/>
</clipPath>
<clipPath id="clip1_18948_10896">
<rect width="53.3333" height="53.3333" fill="white" transform="translate(13.832 13.333)"/>
</clipPath>
</defs>
</svg>
