<svg width="50" height="50" viewBox="0 0 50 50" fill="none" xmlns="http://www.w3.org/2000/svg">
  <path d="M25 50C38.8071 50 50 38.8071 50 25C50 11.1929 38.8071 0 25 0C11.1929 0 0 11.1929 0 25C0 38.8071 11.1929 50 25 50Z" fill="#2E6CF6"/>
  <path fill-rule="evenodd" clip-rule="evenodd" d="M23.7132 7.60796C24.6629 7.10218 25.8108 7.14375 26.7214 7.71689L33.7834 12.1616C34.6559 12.7108 35.1854 13.6696 35.1854 14.7006V36.0266C35.1854 37.1294 34.5803 38.1433 33.6097 38.6669L26.7031 42.3929C25.7652 42.8989 24.6292 42.8693 23.7189 42.3153L15.0207 37.0211C14.1263 36.4768 13.5804 35.5055 13.5804 34.4585V14.8055C13.5804 13.6969 14.1918 12.6787 15.1702 12.1576L23.7132 7.60796ZM15.2423 14.9261L22.7337 19.2482L15.2423 23.5703V14.9261ZM15.2423 26.4321V35.226L23.7692 40.4158C24.6795 40.9699 25.8154 40.9995 26.7533 40.4935L33.5234 36.8411V26.4321L25.8821 30.8407C24.9543 31.376 23.8115 31.376 22.8837 30.8407L15.2423 26.4321ZM33.5234 23.5703L26.032 19.2482L33.5234 14.9261V23.5703ZM32.7581 13.4647L24.3829 18.2967L16.1102 13.5239L23.6431 9.51214C24.5928 9.00636 25.7407 9.04793 26.6513 9.62108L32.7581 13.4647ZM23.5519 20.6791L16.0605 25.0012L23.5519 29.3233V20.6791ZM25.2138 29.3233L32.7052 25.0012L25.2138 20.6791V29.3233ZM39.2088 14.1902C39.2088 11.9441 37.9819 9.87734 36.0101 8.80178L34.6693 11.2599C35.7416 11.8448 36.4088 12.9687 36.4088 14.1902V14.3097H39.2088V14.1902ZM12.7559 40.2722C10.784 39.1967 9.55713 37.1299 9.55713 34.8838V34.7643H12.3571V34.8838C12.3571 36.1053 13.0243 37.2292 14.0967 37.8141L12.7559 40.2722Z" fill="white"/>
</svg>
