<svg width="50" height="50" viewBox="0 0 50 50" fill="none" xmlns="http://www.w3.org/2000/svg">
<path d="M25 50C38.8071 50 50 38.8071 50 25C50 11.1929 38.8071 0 25 0C11.1929 0 0 11.1929 0 25C0 38.8071 11.1929 50 25 50Z" fill="url(#paint0_linear_2492_24647)"/>
<g clip-path="url(#clip0_2492_24647)">
<path d="M33.4118 10C31.7217 9.99869 30.1001 10.668 28.903 11.8611C27.706 13.0542 27.0312 14.6735 27.0268 16.3636V23.4193C26.3692 23.4637 25.6969 23.4916 24.9999 23.4916C24.3028 23.4916 23.6338 23.5196 22.9729 23.559V16.3636C22.946 14.6882 22.2616 13.0904 21.0672 11.9151C19.8729 10.7398 18.2644 10.0811 16.5888 10.0811C14.9131 10.0811 13.3046 10.7398 12.1103 11.9151C10.9159 13.0904 10.2315 14.6882 10.2046 16.3636V33.2269C10.2315 34.9024 10.9159 36.5001 12.1103 37.6754C13.3046 38.8508 14.9131 39.5095 16.5888 39.5095C18.2644 39.5095 19.8729 38.8508 21.0672 37.6754C22.2616 36.5001 22.946 34.9024 22.9729 33.2269V26.1712C23.6305 26.1269 24.3028 26.0989 24.9999 26.0989C25.6969 26.0989 26.366 26.071 27.0268 26.0315V33.2269C27.0537 34.9024 27.7381 36.5001 28.9325 37.6754C30.1268 38.8508 31.7353 39.5095 33.411 39.5095C35.0866 39.5095 36.6951 38.8508 37.8895 37.6754C39.0838 36.5001 39.7683 34.9024 39.7951 33.2269V16.3636C39.7908 14.6738 39.1162 13.0547 37.9195 11.8617C36.7228 10.6687 35.1016 9.99913 33.4118 10ZM16.5879 12.6073C17.5854 12.6068 18.5423 13.0021 19.2486 13.7063C19.955 14.4105 20.3532 15.3662 20.3558 16.3636V23.8352C18.4879 24.1059 16.6639 24.6216 14.9309 25.369C14.18 25.6986 13.4731 26.1205 12.8266 26.625V16.3636C12.8292 15.3673 13.2265 14.4126 13.9315 13.7086C14.6364 13.0046 15.5916 12.6086 16.5879 12.6073ZM20.3558 33.2269C20.3558 34.2262 19.9588 35.1846 19.2522 35.8912C18.5456 36.5978 17.5872 36.9948 16.5879 36.9948C15.5886 36.9948 14.6303 36.5978 13.9236 35.8912C13.217 35.1846 12.8201 34.2262 12.8201 33.2269V31.5353C12.8201 30.041 14.0037 28.6256 15.9879 27.7445C17.386 27.1413 18.853 26.7123 20.3558 26.4671V33.2269ZM33.4118 36.9833C32.4144 36.9837 31.4575 36.5885 30.7511 35.8843C30.0447 35.18 29.6465 34.2244 29.6439 33.2269V25.7553C31.5118 25.4847 33.3358 24.969 35.0689 24.2215C35.8198 23.892 36.5266 23.4701 37.1731 22.9656V33.2269C37.1705 34.2232 36.7732 35.1779 36.0683 35.8819C35.3633 36.586 34.4081 36.982 33.4118 36.9833ZM34.0118 21.8362C32.6137 22.4394 31.1467 22.8684 29.6439 23.1135V16.3636C29.6439 15.3643 30.0409 14.4059 30.7475 13.6993C31.4541 12.9927 32.4125 12.5958 33.4118 12.5958C34.4111 12.5958 35.3695 12.9927 36.0761 13.6993C36.7827 14.4059 37.1797 15.3643 37.1797 16.3636V18.0552C37.1797 19.543 35.996 20.9584 34.0118 21.8362Z" fill="white"/>
</g>
<defs>
<linearGradient id="paint0_linear_2492_24647" x1="3.16666" y1="46.2748" x2="46.6674" y2="2.77485" gradientUnits="userSpaceOnUse">
<stop stop-color="#00AEE9"/>
<stop offset="1" stop-color="#69FABD"/>
</linearGradient>
<clipPath id="clip0_2492_24647">
<rect width="29.5905" height="29.51" fill="white" transform="translate(10.2046 10)"/>
</clipPath>
</defs>
</svg>
