<svg width="50" height="50" viewBox="0 0 50 50" fill="none" xmlns="http://www.w3.org/2000/svg">
  <path
    d="M25 50C38.8071 50 50 38.8071 50 25C50 11.1929 38.8071 0 25 0C11.1929 0 0 11.1929 0 25C0 38.8071 11.1929 50 25 50Z"
    fill="#F2F5FA" />
  <path d="M25.7783 6.25V20.1094L37.4924 25.3437L25.7783 6.25Z" fill="black" fill-opacity="0.602" />
  <path d="M25.7781 6.25L14.0625 25.3437L25.7781 20.1094V6.25Z" fill="black" />
  <path d="M25.7783 34.325V43.7422L37.5002 27.525L25.7783 34.325Z" fill="black" fill-opacity="0.602" />
  <path d="M25.7781 43.7422V34.3234L14.0625 27.525L25.7781 43.7422Z" fill="black" />
  <path d="M25.7783 32.1458L37.4924 25.3442L25.7783 20.113V32.1458Z" fill="black" fill-opacity="0.2" />
  <path d="M14.0625 25.3442L25.7781 32.1458V20.113L14.0625 25.3442Z" fill="black"
    fill-opacity="0.602" />
</svg>