<svg width="51" height="50" viewBox="0 0 51 50" fill="none" xmlns="http://www.w3.org/2000/svg">
<rect x="0.794922" width="50" height="50" rx="25" fill="white"/>
<path d="M25.7889 44.8227L25.7915 38.0767C25.1016 38.0767 24.4063 38.0225 23.7257 37.9153L22.6634 44.5793C23.6937 44.7406 24.7453 44.8227 25.7903 44.8227H25.7889ZM28.9144 44.582C29.9474 44.4206 30.9735 44.1785 31.9665 43.8598L29.8713 37.4417C29.2173 37.652 28.5394 37.8121 27.8574 37.918L28.9144 44.582ZM19.61 43.8558L21.7105 37.4391C21.0553 37.2288 20.4134 36.9642 19.8008 36.6547L16.7074 42.664C17.6376 43.1349 18.6144 43.5356 19.61 43.8558ZM34.8678 42.6719C35.7992 42.2024 36.7 41.6547 37.5461 41.0449L33.5412 35.5899C32.9847 35.992 32.3922 36.3518 31.7796 36.66L34.8678 42.6719ZM14.0303 41.0343L18.0393 35.582C17.4854 35.1824 16.9569 34.7327 16.4659 34.2474L11.6495 39.0144L11.6535 39.0184C12.3929 39.7513 13.1922 40.4298 14.0303 41.0343ZM39.8949 39.0595L39.9363 39.0171C40.6729 38.287 41.3562 37.496 41.9674 36.6666L36.4679 32.6918C36.0649 33.2394 35.6124 33.7631 35.124 34.2486L35.0559 34.3174L37.3699 36.4827L39.8949 39.0595ZM9.61302 36.6534L15.1153 32.6825C14.7096 32.1309 14.3466 31.5436 14.0343 30.9364L7.97021 33.9987C8.44398 34.9206 8.99647 35.8135 9.61302 36.6521V36.6534ZM43.6129 34.0118C44.088 33.0899 44.4924 32.1216 44.8166 31.1349L38.3429 29.0515C38.1307 29.701 37.8638 30.3372 37.5515 30.9444L43.6129 34.0118ZM6.77046 31.1203L13.2456 29.0423C13.0334 28.3942 12.872 27.7221 12.7639 27.0462L6.04048 28.0965C6.20329 29.1203 6.44884 30.1375 6.77046 31.1217V31.1203ZM45.5481 28.1111C45.7108 27.09 45.7935 26.0476 45.7949 25.0132L38.9888 25.0092C38.9888 25.693 38.934 26.3822 38.826 27.0581L45.5481 28.1111ZM12.6024 24.9986C12.6024 24.3148 12.6571 23.6243 12.7639 22.9497L6.04048 21.8994C5.87766 22.9206 5.79625 23.9629 5.79492 24.9973H12.601L12.6024 24.9986ZM38.8286 22.9603L45.552 21.914C45.3905 20.8902 45.145 19.873 44.8247 18.8889L38.3482 20.9629C38.5604 21.6125 38.7219 22.283 38.8286 22.959V22.9603ZM13.2456 20.955C13.4578 20.3055 13.7247 19.668 14.0357 19.0608L7.97154 15.9974C7.49779 16.9193 7.09342 17.8875 6.77046 18.8743L13.2443 20.955H13.2456ZM37.5595 19.0701L43.6263 16.0118C43.1525 15.0886 42.6 14.1957 41.9848 13.3571L36.4799 17.3254C36.8842 17.877 37.2473 18.4643 37.5595 19.0714V19.0701ZM15.118 17.3148C15.5223 16.7646 15.9761 16.238 16.4672 15.7526L16.4805 15.7394L11.6682 10.9696L11.6549 10.9828C10.9155 11.7156 10.2296 12.5106 9.61703 13.3426L15.118 17.3148ZM35.148 15.7764L36.6013 14.3069L39.947 10.9921L39.9363 10.9815C39.2009 10.2526 38.4043 9.57671 37.5688 8.97221L33.5572 14.4219C34.1097 14.8214 34.6369 15.2685 35.124 15.7526L35.148 15.7764ZM18.0553 14.4074C18.6118 14.0066 19.2043 13.6468 19.8169 13.3386L16.7328 7.32539C15.8013 7.79497 14.9004 8.34126 14.0544 8.95105L18.0553 14.4074ZM31.797 13.3492L34.8945 7.34259C33.9643 6.87169 32.9887 6.46958 31.9932 6.14947L29.8886 12.5648C30.5439 12.7764 31.1858 13.0397 31.7983 13.3505L31.797 13.3492ZM21.7279 12.5569C22.3832 12.3479 23.0612 12.1878 23.7418 12.082L22.6888 5.41666C21.6572 5.57672 20.6296 5.81878 19.6368 6.13756L21.7279 12.5569ZM27.8748 12.086L28.9397 5.42195C27.9095 5.26058 26.8579 5.17725 25.8143 5.17725L25.8076 11.9233C26.4976 11.9233 27.1929 11.9788 27.8748 12.086Z" fill="black"/>
<path d="M25.793 38.3749V31.5949C25.2181 31.5949 24.6445 31.5205 24.0898 31.3755L22.3138 37.9255C23.4475 38.2233 24.6175 38.3749 25.793 38.3749ZM29.2721 37.9255C30.4098 37.6264 31.5044 37.1811 32.522 36.6015L29.0779 30.7308C28.5825 31.0126 28.0508 31.2293 27.4975 31.3742L29.2721 37.9255ZM19.0627 36.6001L22.5081 30.7308C22.0142 30.449 21.5567 30.1019 21.1464 29.6991L21.083 29.6379L18.9088 31.8927L16.2407 34.4544L16.2799 34.4917C17.1139 35.3132 18.0505 36.0218 19.0641 36.6001H19.0627ZM35.3061 34.4943H35.3074C36.1401 33.6714 36.8594 32.7501 37.4452 31.7531L31.4882 28.3577C31.202 28.8443 30.8498 29.2949 30.4409 29.6978L35.3061 34.4943ZM14.1327 31.7384L20.0951 28.3511C19.809 27.8632 19.5904 27.3394 19.4433 26.793L12.7912 28.5359C13.0935 29.6566 13.5456 30.7347 14.1327 31.7384ZM38.7921 28.5532C39.0943 27.4364 39.2482 26.2838 39.2495 25.126L32.3667 25.1233C32.3667 25.691 32.2912 26.256 32.1427 26.8023L38.7921 28.5532ZM19.2219 25.1152C19.2219 24.5477 19.2975 23.9827 19.4473 23.4362L12.7993 21.6814C12.4957 22.7981 12.3405 23.9507 12.3405 25.1086L19.2233 25.1152H19.2219ZM32.1441 23.4442L38.7947 21.6987C38.4911 20.578 38.039 19.4998 37.4519 18.4975L31.4909 21.8875C31.777 22.3753 31.9969 22.8992 32.1441 23.4442ZM20.1018 21.8795C20.3839 21.3996 20.7321 20.9542 21.1343 20.5554L21.1518 20.5381L18.6902 18.1132L16.323 15.7083L16.2799 15.7496C15.4485 16.5684 14.7305 17.4871 14.1462 18.4815L20.1018 21.8795ZM30.445 20.5461L32.8822 18.1452L35.3695 15.8107L35.3074 15.7482C34.4761 14.9293 33.5409 14.2207 32.53 13.6438L29.0818 19.5118C29.569 19.7897 30.0225 20.1327 30.4274 20.5288L30.445 20.5461ZM22.5121 19.5078C23.0061 19.226 23.5379 19.0106 24.0925 18.8643L22.3218 12.313C21.1828 12.6121 20.0897 13.0561 19.0708 13.6358L22.5121 19.5078ZM27.5016 18.867L29.2817 12.317C28.148 12.0179 26.9779 11.8663 25.8024 11.865L25.7983 18.645C26.3747 18.645 26.9481 18.7195 27.5029 18.8657L27.5016 18.867Z" fill="black"/>
</svg>
